<?xml version="1.0" encoding="UTF-8"?>
<svg version="1.1" viewBox="0 0 256 256" xmlns="http://www.w3.org/2000/svg">
 <defs>
  <clipPath>
   <path d="m26 40.619h16v-21.237h-16v21.237z"/>
  </clipPath>
 </defs>
 <g transform="translate(0 -796.36)">
  <g transform="matrix(3.2 0 0 3.2 0 -2315.2)">
   <path d="m80 1012.4c0 22.091-17.909 40-40 40s-40-17.909-40-40 17.909-40 40-40 40 17.909 40 40" fill="#9c3"/>
   <g transform="matrix(2.4825 0 0 -2.4825 -38.407 1091.3)" fill="#690"></g>
   <path transform="translate(0 972.36)" d="m64.572 36.047-37.746 27.426 11.854 16.494c0.43929 0.014277 0.87755 0.033203 1.3203 0.033203 17.105 0 31.696-10.74 37.414-25.842l-12.842-18.111z" fill-opacity=".19608" fill-rule="evenodd"/>
   <path d="m31.105 1038.2c-0.85648 0-1.713-0.2208-2.4825-0.6652-1.5367-0.8862-2.4825-2.5273-2.4825-4.2998v-42.792c0-1.7751 0.94585-3.4136 2.4825-4.2999 1.5367-0.88875 3.4284-0.88875 4.9651 0l29.791 21.395c1.5367 0.8862 2.4825 2.5272 2.4825 4.2998 0 1.775-0.94585 3.4135-2.4825 4.2998l-29.791 21.397c-0.76959 0.4444-1.6261 0.6652-2.4825 0.6652" fill="#fff"/>
  </g>
 </g>
</svg>
